<?xml version="1.0" encoding="utf-8"?>
<!-- Generator: Adobe Illustrator 28.0.0, SVG Export Plug-In . SVG Version: 6.00 Build 0)  -->
<svg version="1.1" id="レイヤー_1" xmlns="http://www.w3.org/2000/svg" xmlns:xlink="http://www.w3.org/1999/xlink" x="0px"
	 y="0px" viewBox="0 0 200 200" style="enable-background:new 0 0 200 200;" xml:space="preserve">
<style type="text/css">
	.st0{fill:#FFFFFF;}
</style>
<g>
	<path class="st0" d="M26,20.4c-4.4,0.8-7.3,4.9-6.5,9.2L24,55.7c0.7,3.9,4.1,6.6,7.9,6.6c0.4,0,0.8,0,1.2-0.1l26.2-3.9
		c4.4-0.6,7.4-4.7,6.8-9.1s-4.7-7.4-9.1-6.8l-7.2,1C63.5,29.9,82.3,22,102,22c26.1,0,50.5,14,63.8,36.5c1.5,2.5,4.2,3.9,6.9,3.9
		c1.4,0,2.8-0.4,4.1-1.1c3.8-2.2,5.1-7.1,2.8-11C163.5,23,133.7,6,102,6C77.1,6,53.4,16.4,36.5,34.3l-1.3-7.4
		C34.5,22.6,30.3,19.7,26,20.4z"/>
	<path class="st0" d="M73.4,69h-9c-0.8,0-1.7,0.3-2.4,0.8c-6.1,4.5-12.8,8-19.9,10.6c-1.9,0.7-3,2.7-2.6,4.6l2.1,9.7
		c0.2,1.1,1,2.1,1.9,2.6c1,0.6,2.2,0.7,3.2,0.3c4-1.4,7.5-2.7,10.2-4V179c0,2.2,1.8,4,4,4h12.4c2.2,0,4-1.8,4-4V73
		C77.4,70.8,75.6,69,73.4,69z"/>
	<path class="st0" d="M125.2,67c-9.4,0-16.7,4.8-21.8,14.2c-5.4,10-8.1,25.3-8.1,45.6c0,19,2.5,33.8,7.4,43.7
		c5.1,10.3,12.6,15.6,22.5,15.6c10.4,0,18.2-5.8,23.2-17.1c4.4-9.9,6.7-24.2,6.7-42.3c0-19-2.5-33.8-7.3-43.8
		C142.6,72.3,135,67,125.2,67z M125.1,166.9c-3.1,0-5-5.5-5.8-8.8c-1.8-6.9-2.7-17.5-2.7-31.6c0-37.8,6.5-40.8,8.5-40.8
		c3.1,0,5,5.6,5.9,8.9c1.8,7,2.7,17.8,2.7,32.1C133.6,164,127.1,166.9,125.1,166.9z"/>
</g>
</svg>
