<svg viewBox="0 0 200 200" xmlns="http://www.w3.org/2000/svg"><g fill="#fff"><path d="m73 10c-4.42 0-8 3.58-8 8v47h-47c-4.42 0-8 3.58-8 8s3.58 8 8 8h55c4.42 0 8-3.58 8-8v-55c0-4.42-3.58-8-8-8z"/><path d="m127 81h55c4.42 0 8-3.58 8-8s-3.58-8-8-8h-47v-47c0-4.42-3.58-8-8-8s-8 3.58-8 8v55c0 4.42 3.58 8 8 8z"/><path d="m73 119h-55c-4.42 0-8 3.58-8 8s3.58 8 8 8h47v47c0 4.42 3.58 8 8 8s8-3.58 8-8v-55c0-4.42-3.58-8-8-8z"/><path d="m182 119h-55c-4.42 0-8 3.58-8 8v55c0 4.42 3.58 8 8 8s8-3.58 8-8v-47h47c4.42 0 8-3.58 8-8s-3.58-8-8-8z"/></g></svg>