<?xml version="1.0" encoding="UTF-8"?><svg id="_レイヤー_1" xmlns="http://www.w3.org/2000/svg" viewBox="0 0 200 200"><g fill="#fff"><path d="m174.04,20.42c-4.36-.75-8.49,2.17-9.24,6.52l-1.27,7.37c-16.9-17.91-40.62-28.32-65.52-28.32-31.71,0-61.44,16.99-77.57,44.33-2.25,3.81-.98,8.71,2.83,10.96,1.28.75,2.67,1.11,4.06,1.11,2.74,0,5.41-1.41,6.9-3.94,13.27-22.49,37.71-36.46,63.79-36.46,19.72,0,38.54,7.94,52.31,21.68l-7.16-1.05c-4.37-.64-8.44,2.38-9.08,6.75-.64,4.37,2.38,8.44,6.75,9.08l26.19,3.86c.39.06.79.09,1.17.09,3.83,0,7.2-2.76,7.88-6.64l4.5-26.09c.75-4.35-2.17-8.49-6.52-9.24Z"/><path d="m73.38,69.02h-9.04c-.85,0-1.67.27-2.36.77-6.08,4.46-12.79,8.03-19.94,10.59-1.89.68-2.99,2.66-2.57,4.62l2.11,9.71c.24,1.11.95,2.07,1.94,2.64.99.56,2.17.68,3.25.31,4.02-1.36,7.45-2.71,10.24-4.04v85.45c0,2.21,1.8,4,4,4h12.37c2.21,0,4-1.8,4-4v-106.04c0-2.21-1.8-4-4-4Z"/><path d="m125.17,67c-9.4,0-16.74,4.77-21.82,14.17-5.4,9.99-8.14,25.32-8.14,45.56,0,19.04,2.5,33.75,7.44,43.71,5.07,10.33,12.62,15.56,22.46,15.56,10.36,0,18.17-5.77,23.22-17.15,4.43-9.94,6.68-24.18,6.68-42.32,0-19.03-2.46-33.76-7.31-43.77-5.11-10.46-12.69-15.76-22.52-15.76Zm-.07,99.92c-3.08,0-4.97-5.48-5.82-8.75-1.8-6.91-2.71-17.53-2.71-31.57,0-37.84,6.48-40.78,8.47-40.78,3.1,0,5.01,5.58,5.87,8.91,1.81,7.02,2.73,17.81,2.73,32.06,0,37.23-6.53,40.13-8.54,40.13Z"/></g></svg>
