<?xml version="1.0" encoding="UTF-8"?><svg id="_レイヤー_1" xmlns="http://www.w3.org/2000/svg" viewBox="0 0 200 200"><g fill="#fff"><path d="m18,81c-4.42,0-8-3.58-8-8V18c0-4.42,3.58-8,8-8h55c4.42,0,8,3.58,8,8s-3.58,8-8,8H26v47c0,4.42-3.58,8-8,8Z"/><path d="m182,81c-4.42,0-8-3.58-8-8V26h-47c-4.42,0-8-3.58-8-8s3.58-8,8-8h55c4.42,0,8,3.58,8,8v55c0,4.42-3.58,8-8,8Z"/><path d="m73,190H18c-4.42,0-8-3.58-8-8v-55c0-4.42,3.58-8,8-8s8,3.58,8,8v47h47c4.42,0,8,3.58,8,8s-3.58,8-8,8Z"/><path d="m182,190h-55c-4.42,0-8-3.58-8-8s3.58-8,8-8h47v-47c0-4.42,3.58-8,8-8s8,3.58,8,8v55c0,4.42-3.58,8-8,8Z"/></g></svg>
