<?xml version="1.0" encoding="UTF-8"?><svg id="_レイヤー_1" xmlns="http://www.w3.org/2000/svg" viewBox="0 0 200 200"><path fill="#fff" d="m114.69,190h-29.37c-4.37,0-7.93-3.5-8-7.87l-.19-11.66c-3.7-1.2-7.29-2.7-10.76-4.47l-8.4,8.12c-3.14,3.04-8.13,2.99-11.22-.09l-20.77-20.77c-3.09-3.09-3.13-8.08-.09-11.22l8.12-8.4c-1.78-3.47-3.27-7.06-4.47-10.76l-11.66-.19c-4.37-.07-7.87-3.63-7.87-8v-29.37c0-4.37,3.5-7.93,7.87-8l11.66-.19c1.2-3.7,2.7-7.29,4.47-10.76l-8.12-8.4c-3.04-3.14-2.99-8.13.09-11.22l20.77-20.77c3.09-3.09,8.08-3.13,11.22-.09l8.4,8.12c3.47-1.78,7.06-3.27,10.76-4.47l.19-11.66c.07-4.37,3.63-7.87,8-7.87h29.37c4.37,0,7.93,3.5,8,7.87l.19,11.66c3.7,1.2,7.29,2.7,10.76,4.47l8.4-8.12c3.14-3.03,8.13-2.99,11.22.09l20.77,20.77c3.09,3.09,3.13,8.08.09,11.22l-8.12,8.4c1.78,3.47,3.27,7.06,4.47,10.76l11.66.19c4.37.07,7.87,3.63,7.87,8v29.37c0,4.37-3.5,7.93-7.87,8l-11.66.19c-1.2,3.7-2.7,7.29-4.47,10.76l8.12,8.4c3.04,3.14,2.99,8.13-.09,11.22l-20.77,20.77c-3.09,3.09-8.08,3.13-11.22.09l-8.4-8.12c-3.47,1.78-7.06,3.27-10.76,4.47l-.19,11.66c-.07,4.37-3.63,7.87-8,7.87Zm-21.5-16h13.64l.16-9.76c.06-3.67,2.61-6.83,6.19-7.66,6.19-1.44,12.08-3.89,17.5-7.27,3.12-1.95,7.16-1.52,9.8,1.03l7.04,6.81,9.64-9.64-6.81-7.04c-2.55-2.64-2.98-6.69-1.03-9.8,3.39-5.42,5.83-11.3,7.27-17.5.83-3.58,3.99-6.13,7.66-6.19l9.76-.16v-13.64l-9.76-.16c-3.67-.06-6.83-2.61-7.66-6.19-1.44-6.19-3.89-12.08-7.27-17.5-1.95-3.12-1.52-7.16,1.03-9.8l6.81-7.04-9.64-9.64-7.04,6.81c-2.64,2.56-6.68,2.98-9.8,1.03-5.42-3.39-11.3-5.83-17.5-7.27-3.57-.83-6.12-3.99-6.19-7.66l-.16-9.76h-13.64l-.16,9.76c-.06,3.67-2.61,6.83-6.19,7.66-6.19,1.44-12.08,3.89-17.5,7.27-3.12,1.95-7.16,1.52-9.8-1.03l-7.04-6.81-9.64,9.64,6.81,7.04c2.55,2.64,2.98,6.69,1.03,9.8-3.39,5.42-5.83,11.31-7.27,17.5-.83,3.58-3.99,6.13-7.66,6.19l-9.76.16v13.64l9.76.16c3.67.06,6.83,2.61,7.66,6.19,1.44,6.19,3.89,12.08,7.27,17.5,1.95,3.12,1.52,7.16-1.03,9.8l-6.81,7.04,9.64,9.64,7.04-6.81c2.64-2.55,6.69-2.98,9.8-1.03,5.42,3.39,11.3,5.83,17.5,7.27,3.58.83,6.13,3.99,6.19,7.66l.16,9.76Zm88.82-59.31h0,0Zm-82,23.31c-.25,0-.51,0-.76-.01-9.57-.19-18.63-3.94-25.54-10.58-.38-.35-.75-.72-1.1-1.1-6.64-6.91-10.39-15.97-10.58-25.54,0-.25-.01-.51-.01-.76s0-.51.01-.76c.19-9.57,3.94-18.63,10.58-25.54.36-.38.73-.75,1.11-1.11,6.91-6.64,15.97-10.39,25.55-10.58.5-.02,1.01-.02,1.51,0,9.57.18,18.64,3.94,25.55,10.58.38.35.75.73,1.11,1.11,6.64,6.91,10.39,15.97,10.58,25.54,0,.25.01.51.01.76s0,.51-.01.76c-.19,9.57-3.94,18.63-10.58,25.54-.35.38-.72.75-1.1,1.1-6.91,6.64-15.97,10.39-25.54,10.58-.25,0-.51.01-.76.01Zm0-60h-.22c-.06,0-.12,0-.18,0-5.57.1-10.84,2.28-14.85,6.16-.05.05-.1.09-.15.14-.1.1-.2.2-.3.3-.04.05-.09.1-.14.15-3.87,4.01-6.06,9.28-6.15,14.85,0,.07,0,.14,0,.21v.4c0,.07,0,.12,0,.19.09,5.57,2.28,10.84,6.15,14.85.04.05.09.09.13.14.1.11.2.21.31.31.05.04.09.09.14.13,4.01,3.87,9.29,6.06,14.85,6.16.07,0,.14,0,.21,0h.4c.07,0,.12,0,.19,0,5.57-.09,10.84-2.28,14.85-6.16.05-.04.09-.09.14-.13.11-.1.21-.2.31-.31.04-.05.09-.09.13-.14,3.87-4.01,6.06-9.29,6.15-14.85,0-.07,0-.14,0-.21v-.4c0-.07,0-.12,0-.19-.09-5.57-2.28-10.84-6.15-14.85-.05-.05-.09-.1-.14-.15-.1-.1-.2-.21-.3-.3-.05-.05-.1-.09-.15-.14-4.01-3.87-9.29-6.06-14.85-6.16-.06,0-.12,0-.19,0h-.21Z"/></svg>
