<svg viewBox="0 0 200 200" xmlns="http://www.w3.org/2000/svg"><g fill="#fff"><path d="m172.72 51.54c-2.58-3.14-7.3-3.39-10.17-.51-2.52 2.52-2.65 6.52-.39 9.27 18.84 23.01 18.84 56.39 0 79.41-2.26 2.76-2.13 6.75.39 9.27 2.87 2.87 7.6 2.63 10.17-.51 23.04-28.07 23.04-68.85 0-96.93z"/><path d="m156.63 76.68c-2.36-3.48-7.34-3.88-10.31-.91l-.24.24c-2.28 2.28-2.52 5.82-.73 8.5 3.04 4.55 4.68 9.9 4.68 15.49s-1.63 10.94-4.68 15.49c-1.79 2.68-1.55 6.22.73 8.5l.24.24c2.97 2.97 7.95 2.57 10.31-.91 4.63-6.83 7.12-14.88 7.12-23.32s-2.49-16.49-7.12-23.32z"/><path d="m128.25 31.96v78.96l-58.38-58.38 44.73-28.12c5.93-3.73 13.65.53 13.65 7.54z"/><path d="m45.38 62.72 82.87 82.87v22.46c0 7.01-7.71 11.27-13.65 7.54l-58.85-36.99c-.17-.11-.34-.21-.52-.3-.16-.09-.32-.17-.48-.23-.38-.17-.78-.32-1.17-.44-.2-.06-.4-.12-.61-.15-.2-.04-.4-.07-.62-.11-.2-.03-.4-.05-.62-.06-.17-.01-.34-.02-.52-.02h-32.3c-4.92 0-8.91-3.98-8.91-8.91v-56.76c0-4.92 3.98-8.91 8.91-8.91h26.47z"/><path d="m172.56 165.79-6.78 6.78c-.63.62-1.44.94-2.26.94s-1.64-.32-2.27-.94l-33.01-33.01-44.53-44.53-32.32-32.32-23.97-23.97c-1.25-1.26-1.25-3.28 0-4.53l6.78-6.78c.63-.62 1.44-.94 2.26-.94s1.64.32 2.27.94l27.43 27.43 62.08 62.08 44.32 44.32c1.25 1.25 1.25 3.28 0 4.53z"/></g></svg>