<svg viewBox="0 0 200 200" xmlns="http://www.w3.org/2000/svg"><g fill="#fff"><path d="m156.63 76.68c-2.36-3.48-7.34-3.88-10.31-.91l-.24.24c-2.28 2.28-2.52 5.82-.73 8.5 3.04 4.55 4.68 9.9 4.68 15.49s-1.63 10.94-4.68 15.49c-1.79 2.68-1.55 6.22.73 8.5l.24.24c2.97 2.97 7.95 2.57 10.31-.91 4.63-6.83 7.12-14.89 7.12-23.32s-2.49-16.49-7.12-23.32z"/><path d="m114.6 24.42-58.75 36.93c-1.42.89-3.06 1.37-4.74 1.37h-32.2c-4.92 0-8.91 3.99-8.91 8.91v56.76c0 4.92 3.99 8.91 8.91 8.91h32.21c1.68 0 3.32.47 4.74 1.37l58.75 36.93c5.93 3.73 13.64-.53 13.64-7.54v-136.1c0-7.01-7.71-11.27-13.64-7.54z"/></g></svg>